<?xml version="1.0" encoding="UTF-8"?>
<!DOCTYPE svg PUBLIC "-//W3C//DTD SVG 1.1//EN" "http://www.w3.org/Graphics/SVG/1.1/DTD/svg11.dtd">
<!-- Creator: CorelDRAW 2021 (64-Bit) -->
<svg xmlns="http://www.w3.org/2000/svg" xml:space="preserve" width="170.526mm" height="39.6446mm" version="1.1" style="shape-rendering:geometricPrecision; text-rendering:geometricPrecision; image-rendering:optimizeQuality; fill-rule:evenodd; clip-rule:evenodd"
viewBox="0 0 17052.6 3964.46"
 xmlns:xlink="http://www.w3.org/1999/xlink"
 xmlns:xodm="http://www.corel.com/coreldraw/odm/2003">
 <defs>
  <style type="text/css">
   <![CDATA[
    .fil0 {fill:#FEFEFE}
   ]]>
  </style>
 </defs>
 <g id="Layer_x0020_1">
  <metadata id="CorelCorpID_0Corel-Layer"/>
  <path class="fil0" d="M6681.15 1065.86c-213.56,0 -378.44,58.6 -495.65,176.8 -117.2,117.21 -191.7,277.13 -221.5,478.76l1430.32 0c-14.9,-214.55 -88.4,-377.44 -221.5,-488.69 -132.11,-111.25 -296,-166.87 -491.67,-166.87zm-6689.25 -1058.42l337.56 0 0 486.29 -337.56 0 0 -486.29zm1159.99 0l6858.05 0 0 1031.75c-10.21,-16.15 -20.73,-32.09 -31.58,-47.82 -144.02,-213.56 -325.79,-369.5 -547.29,-468.83 -220.51,-98.33 -468.83,-148 -744.96,-148 -454.64,0 -826.26,141.25 -1114.87,422.75l96.71 -333.35 -864.15 0 -494.65 2283.53 -483.73 -2283.53 -840.31 0 -456.91 2274.59 -494.65 -2274.59 -881.68 0 0 -456.5 0.02 0zm7686.44 0l8206.18 0 0 3964.46 -17052.61 0 0 -2894.12 337.56 0 0 1954.77c0,197.66 46.68,344.66 140.05,440.02 143.03,148.99 410.22,217.52 802.57,203.62l392.34 -17.88 0 -619.81c-26.82,3.98 -54.63,6.96 -82.44,8.94 -27.81,1.99 -54.63,2.98 -79.46,2.98 -167.87,0 -268.19,-15.89 -300.96,-47.67 -32.78,-32.78 -49.67,-114.23 -49.67,-244.35l0 -1680.62 163.21 0 718.47 2556.68 861.17 0 503.59 -2309.35 497.63 2309.35 852.23 0 379.77 -1309.08c39.97,461.33 197.58,803.55 473.52,1026 321.82,260.23 694.3,390.35 1116.44,390.35 510.54,0 907.85,-153.95 1191.93,-462.86 36.55,-39.15 69.93,-78.14 100.11,-116.98l0 472.57 828.39 0 0 -2724.21 975.37 2724.21 874.08 0 529.01 -1466c15.58,541.34 176.09,935.95 482.45,1182.92 321.82,260.23 694.3,390.35 1116.44,390.35 510.54,0 907.85,-153.95 1191.93,-462.86 181.77,-194.68 285.07,-385.39 306.92,-574.12l-851.24 0c-49.66,93.37 -106.28,165.88 -170.84,218.53 -118.2,96.34 -271.16,145.01 -459.89,145.01 -178.79,0 -330.76,-39.73 -456.9,-120.18 -208.59,-128.14 -318.84,-352.62 -331.76,-672.45l2312.34 0c3.97,-274.14 -4.97,-483.73 -27.81,-628.74 -37.75,-248.32 -122.18,-466.84 -252.3,-655.56 -144.02,-213.56 -325.79,-369.5 -547.29,-468.83 -220.51,-98.33 -468.83,-148 -744.96,-148 -421.85,0 -772.22,121.6 -1051.12,364.01l101.25 -280.57 -890.97 0 -675.43 2343.12 -660.53 -2343.12 -768.76 0 0 -450.54 -0.01 0.01zm7454.93 3091.93l119.38 0 68.72 324.42 70.27 -324.42 122.77 0 -130.67 450.43 -121.07 0 -70.7 -328.08 -71.54 328.08 -122.35 0 -126.57 -450.43 126.57 0 70.28 323.15 64.91 -323.15zm-541.02 87.21l0 -82.98 62.65 0 0 -127 116.84 0 0 127 72.81 0 0 82.98 -72.81 0 0 238.76c0,18.49 2.4,30.06 7.06,34.71 4.65,4.52 18.91,6.78 42.75,6.78 3.53,0 7.34,-0.14 11.29,-0.43 3.95,-0.28 7.9,-0.7 11.71,-1.27l0 88.06 -55.73 2.54c-55.74,1.97 -93.7,-7.76 -114.02,-28.93 -13.27,-13.55 -19.9,-34.43 -19.9,-62.51l0 -277.71 -62.65 0zm-2973.32 -2120.72c-213.56,0 -378.44,58.6 -495.65,176.8 -117.2,117.21 -191.7,277.13 -221.5,478.76l1430.32 0c-14.9,-214.55 -88.4,-377.44 -221.5,-488.69 -132.11,-111.25 -296,-166.87 -491.67,-166.87zm-4768.98 1638.9l0 -429.09 -2063.82 0c12.92,319.83 123.17,544.31 331.76,672.45 126.14,80.45 278.11,120.18 456.9,120.18 188.73,0 341.69,-48.67 459.89,-145.01 64.56,-52.65 121.18,-125.16 170.84,-218.53l644.43 0z"/>
 </g>
</svg>
